<?xml version="1.0" encoding="iso-8859-1"?>
<!-- Uploaded to: SVG Repo, www.svgrepo.com, Generator: SVG Repo Mixer Tools -->
<!DOCTYPE svg PUBLIC "-//W3C//DTD SVG 1.1//EN" "http://www.w3.org/Graphics/SVG/1.1/DTD/svg11.dtd">
<svg fill="#000000" height="800px" width="800px" version="1.1" id="Capa_1" xmlns="http://www.w3.org/2000/svg" xmlns:xlink="http://www.w3.org/1999/xlink" 
	 viewBox="0 0 420.182 420.182" xml:space="preserve">
<g>
	<path d="M314.701,151.731c-7.416,1.986-13.613,6.742-17.452,13.392c-3.839,6.648-4.858,14.393-2.871,21.809
		c1.986,7.416,6.742,13.614,13.391,17.452c4.429,2.558,9.344,3.863,14.323,3.863c2.497,0,5.011-0.328,7.486-0.992
		c15.308-4.102,24.425-19.892,20.323-35.2C345.8,156.746,330.008,147.63,314.701,151.731z M329.71,183.864
		c-1.168,2.021-3.053,3.468-5.309,4.072c-2.252,0.606-4.61,0.295-6.633-0.873c-2.022-1.167-3.468-3.053-4.072-5.308
		c-0.605-2.256-0.294-4.611,0.873-6.633c1.168-2.023,3.053-3.469,5.308-4.073c0.755-0.202,1.514-0.299,2.261-0.299
		c3.858,0,7.4,2.579,8.445,6.479C331.188,179.486,330.877,181.842,329.71,183.864z"/>
	<path d="M405.504,169.252c0.472-6.615,0.489-13.26,0.055-19.877c11.146-6.289,17.102-19.554,13.64-32.475
		c-1.986-7.415-6.742-13.613-13.392-17.452c-4.48-2.587-9.448-3.852-14.5-3.862c-2.93-6.013-6.279-11.819-10.019-17.371
		c2.544-4.348,3.899-9.31,3.899-14.479c0-7.677-2.989-14.895-8.418-20.322c0,0,0,0-0.001-0.001
		c-5.428-5.429-12.646-8.418-20.322-8.418c-5.17,0-10.132,1.356-14.48,3.899c-5.551-3.739-11.358-7.089-17.371-10.019
		c0.031-5.04-1.275-10.019-3.862-14.5c-3.839-6.649-10.036-11.405-17.452-13.392c-12.92-3.464-26.186,2.493-32.475,13.64
		c-6.615-0.435-13.262-0.416-19.877,0.055c-6.276-11.182-19.563-17.161-32.505-13.694c-7.415,1.986-13.613,6.742-17.452,13.392
		c-2.655,4.599-3.961,9.723-3.857,14.898c-14.073,6.959-26.862,16.148-38.104,27.391c-19.171,19.172-32.523,43.215-38.611,69.529
		c-0.789,3.413,0.265,6.991,2.779,9.431c1.32,1.281,2.626,2.445,3.92,3.506c-4.957,33.708,2.922,67.702,21.664,95.52L7.603,375.809
		c-10.137,10.137-10.137,26.632,0,36.77c5.069,5.069,11.726,7.604,18.385,7.603c6.657-0.001,13.317-2.535,18.385-7.603
		L185.531,271.42c27.819,18.745,61.812,26.622,95.522,21.663c1.061,1.293,2.225,2.6,3.506,3.92c2.44,2.514,6.017,3.571,9.431,2.778
		c26.314-6.087,50.356-19.439,69.528-38.61c11.241-11.241,20.431-24.031,27.391-38.105c5.162,0.1,10.299-1.203,14.898-3.857
		c6.649-3.839,11.405-10.036,13.392-17.452C422.666,188.815,416.686,175.529,405.504,169.252z M349.748,58.119
		c0.069-0.078,0.139-0.157,0.206-0.237c0.101-0.111,0.204-0.221,0.312-0.327c1.651-1.651,3.847-2.56,6.181-2.56
		c2.335,0,4.529,0.909,6.181,2.559c0,0,0,0.001,0.001,0.001c1.65,1.651,2.559,3.846,2.559,6.181c0,2.334-0.909,4.529-2.56,6.182
		c-0.101,0.101-0.203,0.198-0.308,0.293c-0.096,0.081-0.19,0.163-0.282,0.246c-1.567,1.309-3.524,2.021-5.591,2.021
		c-2.334,0-4.529-0.909-6.181-2.56C347.04,66.69,346.867,61.55,349.748,58.119z M287.211,27.363
		c0.031-0.147,0.059-0.297,0.084-0.447c0.031-0.144,0.066-0.289,0.104-0.434c1.247-4.655,6.051-7.427,10.706-6.181
		c2.255,0.605,4.14,2.051,5.308,4.073c1.167,2.022,1.478,4.377,0.873,6.633c-0.032,0.118-0.066,0.235-0.103,0.353
		c-0.06,0.159-0.114,0.32-0.165,0.48c-0.71,1.886-2.038,3.454-3.805,4.475c-2.023,1.167-4.377,1.476-6.634,0.873
		c-2.255-0.604-4.14-2.051-5.308-4.072C287.257,31.355,286.89,29.343,287.211,27.363z M218.294,24.375
		c1.167-2.022,3.052-3.469,5.307-4.073c4.654-1.246,9.459,1.524,10.706,6.181c0.047,0.177,0.089,0.354,0.125,0.531
		c0.018,0.115,0.04,0.229,0.063,0.344c0.322,1.982-0.044,3.997-1.061,5.759c-1.168,2.021-3.053,3.468-5.309,4.072
		c-2.256,0.606-4.611,0.294-6.633-0.873c-1.752-1.012-3.071-2.562-3.786-4.426c-0.033-0.097-0.069-0.195-0.107-0.292
		c-0.066-0.193-0.126-0.391-0.18-0.59C216.816,28.752,217.126,26.396,218.294,24.375z M30.231,398.436
		c-2.339,2.34-6.146,2.339-8.485,0.001c-2.339-2.34-2.339-6.147,0-8.486l139.48-139.48c1.348,1.472,2.729,2.916,4.149,4.336
		c1.419,1.419,2.865,2.802,4.336,4.149L30.231,398.436z M179.518,240.664c-24.286-24.286-36.348-57.837-33.441-91.667
		c3.217,0.888,6.25,1.436,9.065,1.945c7.919,1.432,14.173,2.563,22.14,10.529c7.964,7.964,9.091,14.217,10.517,22.132
		c1.632,9.059,3.664,20.333,16.058,32.728c12.394,12.393,23.667,14.425,32.726,16.057c7.915,1.426,14.167,2.552,22.131,10.517
		c7.966,7.966,9.097,14.22,10.528,22.138c0.509,2.814,1.058,5.848,1.945,9.064C237.348,277.015,203.812,264.96,179.518,240.664z
		 M349.375,247.028c-15.102,15.103-33.704,26.012-54.099,31.779c-4.278-5.842-5.22-11.049-6.354-17.323
		c-1.638-9.059-3.676-20.331-16.066-32.723c-12.395-12.395-23.668-14.425-32.727-16.058c-7.915-1.426-14.167-2.552-22.131-10.516
		c-7.964-7.964-9.09-14.216-10.517-22.132c-1.632-9.059-3.664-20.333-16.059-32.728c-12.392-12.392-23.665-14.43-32.723-16.067
		c-6.275-1.135-11.483-2.076-17.326-6.355c5.768-20.395,16.677-38.998,31.78-54.1c9.288-9.288,19.793-16.948,31.317-22.845
		c1.999,2.221,4.358,4.137,7.021,5.674c6.65,3.84,14.396,4.859,21.81,2.871c10.844-2.905,18.581-11.678,20.714-21.987
		c4.545-0.263,9.103-0.277,13.647-0.047c0.613,3,1.714,5.914,3.289,8.643c3.839,6.649,10.036,11.404,17.451,13.391
		c7.416,1.989,15.161,0.969,21.81-2.871c2.776-1.603,5.223-3.617,7.275-5.96c4.038,2.043,7.965,4.308,11.758,6.781
		c-3.407,10.042-1.115,21.608,6.876,29.602c5.429,5.429,12.647,8.418,20.323,8.418c3.209,0,6.338-0.522,9.289-1.526
		c2.47,3.789,4.73,7.71,6.771,11.742c-2.343,2.053-4.357,4.5-5.96,7.276c-3.839,6.648-4.858,14.395-2.871,21.809
		c1.986,7.416,6.742,13.614,13.391,17.452c2.729,1.576,5.642,2.677,8.643,3.289c0.232,4.547,0.216,9.104-0.047,13.647
		c-10.31,2.133-19.082,9.87-21.987,20.713c-1.987,7.416-0.968,15.161,2.871,21.811c1.537,2.662,3.453,5.021,5.674,7.021
		C366.322,227.234,358.662,237.742,349.375,247.028z M399.88,196.581c-0.604,2.255-2.051,4.14-4.073,5.308
		c-2.021,1.167-4.376,1.477-6.633,0.873c-0.189-0.051-0.374-0.106-0.557-0.169c-0.119-0.046-0.238-0.089-0.357-0.13
		c-1.85-0.717-3.388-2.032-4.393-3.773c-1.168-2.022-1.478-4.378-0.873-6.634c0.604-2.255,2.051-4.14,4.072-5.308
		c1.764-1.017,3.779-1.381,5.758-1.062c0.115,0.023,0.23,0.045,0.346,0.063c0.177,0.036,0.354,0.078,0.53,0.125
		C398.355,187.122,401.127,191.925,399.88,196.581z M393.698,132.782c-0.159,0.043-0.317,0.081-0.478,0.114
		c-0.12,0.021-0.24,0.043-0.358,0.067c-1.993,0.334-4.023-0.031-5.797-1.055c-2.022-1.167-3.468-3.053-4.072-5.309
		c-0.605-2.255-0.295-4.61,0.873-6.632c1.031-1.787,2.624-3.125,4.537-3.829c0.119-0.038,0.236-0.079,0.354-0.122
		c0.138-0.044,0.276-0.084,0.416-0.122c2.256-0.603,4.611-0.294,6.633,0.874c2.022,1.167,3.469,3.052,4.073,5.307
		C401.127,126.732,398.355,131.535,393.698,132.782z"/>
	<path d="M248.127,70.28c-7.414-1.987-15.16-0.968-21.81,2.871c-6.648,3.839-11.404,10.036-13.391,17.452
		c-4.102,15.309,5.016,31.099,20.323,35.2c2.482,0.665,4.976,0.982,7.432,0.982c12.689,0,24.332-8.48,27.769-21.306
		C272.552,90.172,263.435,74.382,248.127,70.28z M249.132,100.305c-1.247,4.655-6.052,7.43-10.706,6.181
		c-2.255-0.604-4.14-2.051-5.308-4.072c-1.167-2.022-1.477-4.378-0.873-6.634c0.604-2.255,2.051-4.14,4.072-5.308
		c1.348-0.777,2.842-1.175,4.357-1.175c0.76,0,1.524,0.101,2.277,0.302c2.255,0.604,4.14,2.051,5.308,4.072
		C249.426,95.693,249.736,98.049,249.132,100.305z"/>
	<path d="M327.979,132.849c5.43-5.428,8.419-12.646,8.419-20.323c0-7.677-2.989-14.895-8.418-20.323
		c-11.207-11.205-29.439-11.205-40.647,0c-5.429,5.429-8.418,12.646-8.418,20.323c0,7.678,2.989,14.896,8.418,20.322
		c5.428,5.43,12.646,8.419,20.323,8.419S322.552,138.277,327.979,132.849z M298.915,112.525c0-2.335,0.909-4.529,2.561-6.181
		c1.704-1.704,3.942-2.557,6.181-2.557s4.477,0.853,6.181,2.557c1.651,1.651,2.561,3.846,2.561,6.181
		c0,2.335-0.909,4.529-2.561,6.182c-1.651,1.65-3.846,2.56-6.181,2.56s-4.529-0.909-6.182-2.561
		C299.824,117.055,298.915,114.86,298.915,112.525z"/>
</g>
</svg>