<?xml version="1.0" encoding="iso-8859-1"?>
<!-- Uploaded to: SVG Repo, www.svgrepo.com, Generator: SVG Repo Mixer Tools -->
<svg fill="#000000" height="800px" width="800px" version="1.1" id="Capa_1" xmlns="http://www.w3.org/2000/svg" xmlns:xlink="http://www.w3.org/1999/xlink" 
	 viewBox="0 0 463 463" xml:space="preserve">
<g>
	<path d="M367.504,168h-16.002c-4.142,0-7.5,3.358-7.5,7.5s3.358,7.5,7.5,7.5h16.002c4.142,0,7.5-3.358,7.5-7.5
		S371.646,168,367.504,168z"/>
	<path d="M111.499,280H95.497c-4.142,0-7.5,3.358-7.5,7.5s3.358,7.5,7.5,7.5h16.002c4.142,0,7.5-3.358,7.5-7.5
		S115.641,280,111.499,280z"/>
	<path d="M442.215,248.162c3.028-4.837,4.785-10.547,4.785-16.662s-1.757-11.825-4.785-16.662
		C453.898,213.487,463,203.539,463,191.5c0-10.422-6.821-19.275-16.232-22.344C443.508,123.859,405.615,88,359.5,88h-256
		c-46.114,0-84.007,35.859-87.268,81.156C6.821,172.225,0,181.078,0,191.5c0,12.039,9.102,21.987,20.785,23.338
		C17.757,219.675,16,225.385,16,231.5s1.757,11.825,4.785,16.662C9.102,249.513,0,259.461,0,271.5
		c0,10.421,6.821,19.275,16.231,22.344C19.493,339.141,57.386,375,103.5,375h256c46.114,0,84.007-35.859,87.268-81.156
		C456.179,290.775,463,281.922,463,271.5C463,259.461,453.898,249.513,442.215,248.162z M31,231.5c0-9.098,7.402-16.5,16.5-16.5h368
		c9.098,0,16.5,7.402,16.5,16.5s-7.402,16.5-16.5,16.5h-368C38.402,248,31,240.598,31,231.5z M15,191.5c0-4.687,3.813-8.5,8.5-8.5
		h296.001c4.142,0,7.5-3.358,7.5-7.5s-3.358-7.5-7.5-7.5H31.387c3.765-36.466,34.668-65,72.113-65h256
		c37.444,0,68.347,28.534,72.113,65H399.5c-4.142,0-7.5,3.358-7.5,7.5s3.358,7.5,7.5,7.5h40c4.687,0,8.5,3.813,8.5,8.5
		s-3.813,8.5-8.5,8.5h-24h-368h-24C18.813,200,15,196.187,15,191.5z M439.5,280H143.499c-4.142,0-7.5,3.358-7.5,7.5
		s3.358,7.5,7.5,7.5h288.114c-3.765,36.466-34.668,65-72.113,65h-256c-37.444,0-68.348-28.535-72.113-65H63.5
		c4.142,0,7.5-3.358,7.5-7.5s-3.358-7.5-7.5-7.5h-40c-4.687,0-8.5-3.813-8.5-8.5s3.813-8.5,8.5-8.5h24h368h24
		c4.687,0,8.5,3.813,8.5,8.5S444.188,280,439.5,280z"/>
	<path d="M359.5,135c11.502,0,22.504,4.919,30.184,13.496c1.481,1.654,3.531,2.497,5.59,2.497c1.781,0,3.569-0.631,5-1.913
		c3.086-2.763,3.348-7.504,0.584-10.59C390.338,126.739,375.263,120,359.5,120h-32.002c-4.142,0-7.5,3.358-7.5,7.5
		s3.358,7.5,7.5,7.5H359.5z"/>
	<path d="M295.501,120h-15.999c-4.142,0-7.5,3.358-7.5,7.5s3.358,7.5,7.5,7.5h15.999c4.142,0,7.5-3.358,7.5-7.5
		S299.644,120,295.501,120z"/>
</g>
</svg>